<?xml version="1.0" encoding="utf-8"?>
<!-- Generator: Adobe Illustrator 16.0.0, SVG Export Plug-In . SVG Version: 6.00 Build 0)  -->
<!DOCTYPE svg PUBLIC "-//W3C//DTD SVG 1.1//EN" "http://www.w3.org/Graphics/SVG/1.1/DTD/svg11.dtd">
<svg version="1.1" id="Layer_1" xmlns="http://www.w3.org/2000/svg" xmlns:xlink="http://www.w3.org/1999/xlink" x="0px" y="0px"
	 width="115.2px" height="115.2px" viewBox="0 0 115.2 115.2" enable-background="new 0 0 115.2 115.2" xml:space="preserve">
<g>
	<polygon fill="#2B3990" points="89.846,92.861 0,92.861 25.353,22.339 115.2,22.339 	"/>
	<g>
		<path fill="#FFFFFF" d="M52.904,45.985v32.167l0,0c0.921-3.169,10.997-32.167,10.997-32.167H52.904z"/>
		<path fill="#FFFFFF" d="M83.049,67.836h-8.583v11.585h9.602v5.938H56.505l13.55-39.374h14.013v5.997h-9.602v10.203h8.583V67.836z"
			/>
		<g>
			<path fill="#FFFFFF" d="M28.377,45.985c0,0,4.354,0,7.086,0c3.603,0,5.822,0.825,7.642,2.642
				c1.659,1.421,2.772,3.919,2.772,7.158c0,3.524-1.544,6.763-4.432,8.299l0,0c2.81,1.023,5.787,4.301,5.787,9.584
				c0,3.41-1.054,6.362-2.348,8.108c-1.596,2.152-3.879,3.583-8.177,3.583c-2.691,0-21.86,0-21.86,0L28.377,45.985z M33.208,62.093
				h2.495c3.363,0,5.266-2.276,5.266-5.514c0-3.576-1.902-5.229-4.99-5.229c-1.424,0-2.254-0.171-2.771,0V62.093z M33.208,79.875
				c0.632,0.117,1.464,0,2.571,0c3.13,0,5.9-1.702,5.9-6.421c0-4.432-2.69-6.249-6.052-6.249h-2.42V79.875z"/>
		</g>
	</g>
</g>
</svg>
